<svg width="512" height="512" viewBox="0 0 512 512" fill="none" xmlns="http://www.w3.org/2000/svg">
<path d="M390.295 82.1558C420.408 114.281 431.7 162.035 439.808 210.367C447.915 258.41 453.127 306.743 432.859 339.447C412.59 372.151 367.131 388.937 319.646 410.643C272.449 432.349 222.937 458.686 178.346 451.451C133.467 443.926 93.5091 403.118 74.9781 356.812C56.447 310.505 59.632 258.7 70.9244 210.657C82.5063 162.903 102.196 119.201 135.493 87.6547C168.791 56.3978 215.409 37.2964 263.184 35.8493C311.249 34.4022 360.182 50.3201 390.295 82.1558Z" fill="#F37748"/>
<path d="M404.726 448.296C404.508 450.481 403.74 452.532 401.552 453.821C400.091 454.681 398.02 455.216 395.037 455.165C387.618 455.067 373.661 449.765 373.661 449.765L360.597 442.547L367.392 431.804L369.254 428.888L374.057 429.967C374.057 429.967 378.036 432.218 382.034 434.013C386.031 435.809 395.749 436.204 399.169 438.952C402.59 441.701 405.099 444.691 404.726 448.296Z" fill="#F37748"/>
<path d="M404.726 448.296C404.508 450.481 403.74 452.532 401.552 453.821C402.18 451.672 402.05 449.374 401.185 447.31C399.728 444.054 394.976 441.148 388.726 440.669C382.476 440.19 377.701 437.269 375.197 435.962C373.242 434.948 369.119 432.735 367.401 431.814L369.263 428.898L374.066 429.977C374.066 429.977 378.045 432.228 382.043 434.023C386.041 435.818 395.758 436.213 399.179 438.962C402.599 441.71 405.099 444.691 404.726 448.296Z" fill="white"/>
<path d="M456.409 269.348C420.834 208.466 324.348 230.147 304.643 200.518C294.548 185.399 283.258 167.801 266.88 158.662C251.271 149.91 233.162 146.84 217.39 147.994C161.026 152.114 137.156 202.495 147.995 257.819C162.422 331.615 227.894 407.002 305.662 407.528C346.342 407.835 385.212 393.25 415.644 372.732L416.324 372.267C446.78 351.571 483.569 315.826 456.409 269.348Z" fill="#E6E7E8"/>
<path d="M180.67 273.189H176.715C172.47 273.189 168.399 274.874 165.397 277.874C162.396 280.873 160.71 284.941 160.71 289.183V376.945C160.71 381.187 162.396 385.255 165.397 388.254C168.399 391.254 172.47 392.939 176.715 392.939H230.984C235.229 392.939 239.3 391.254 242.302 388.254C245.303 385.255 246.989 381.187 246.989 376.945V376.945" stroke="#D1D3D4" stroke-width="1.1" stroke-linecap="round" stroke-linejoin="round" stroke-dasharray="4.41 4.41"/>
<path d="M242.568 190.38V173.042C242.568 170.449 243.597 167.962 245.429 166.126C247.261 164.29 249.747 163.255 252.342 163.248H322.919C325.518 163.248 328.011 164.28 329.849 166.117C331.688 167.953 332.72 170.444 332.72 173.042" stroke="#D1D3D4" stroke-width="1.1" stroke-linecap="round" stroke-linejoin="round" stroke-dasharray="4.41 4.41"/>
<path d="M437.821 213.633V344.953C437.821 349.242 436.118 353.356 433.086 356.391C430.053 359.426 425.94 361.135 421.648 361.142H190.495C186.199 361.141 182.08 359.435 179.043 356.399C176.005 353.363 174.299 349.246 174.299 344.953V213.633C174.291 213.254 174.308 212.875 174.35 212.498C174.635 208.413 176.46 204.588 179.456 201.794C182.452 199 186.397 197.446 190.495 197.444H421.648C425.75 197.445 429.699 199.004 432.695 201.804C435.692 204.603 437.512 208.436 437.788 212.526C437.818 212.894 437.829 213.264 437.821 213.633V213.633Z" fill="#CCCCCC"/>
<path d="M182.183 218.563H430.765V339.875C430.764 343.895 429.166 347.75 426.322 350.592C423.478 353.435 419.621 355.034 415.598 355.036H197.369C193.344 355.036 189.484 353.439 186.637 350.596C183.791 347.753 182.19 343.897 182.188 339.875V218.563H182.183Z" fill="white"/>
<path d="M437.769 212.526H174.355C174.64 208.441 176.465 204.616 179.461 201.822C182.457 199.028 186.402 197.474 190.5 197.472H421.648C425.742 197.479 429.682 199.035 432.673 201.829C435.665 204.622 437.486 208.445 437.769 212.526Z" fill="#BCBEC0"/>
<path d="M206.719 204.969C206.72 205.537 206.552 206.092 206.237 206.565C205.922 207.037 205.473 207.406 204.948 207.624C204.423 207.841 203.846 207.899 203.288 207.788C202.731 207.677 202.219 207.404 201.817 207.002C201.415 206.601 201.141 206.089 201.031 205.532C200.92 204.975 200.977 204.398 201.195 203.873C201.413 203.349 201.782 202.901 202.255 202.586C202.728 202.271 203.284 202.103 203.852 202.104C204.612 202.104 205.341 202.406 205.879 202.943C206.417 203.48 206.719 204.209 206.719 204.969Z" fill="white"/>
<path d="M218.847 204.969C218.847 205.535 218.679 206.089 218.364 206.56C218.049 207.032 217.601 207.399 217.077 207.616C216.553 207.832 215.977 207.889 215.421 207.779C214.865 207.668 214.354 207.395 213.953 206.995C213.552 206.594 213.279 206.083 213.168 205.528C213.058 204.972 213.114 204.396 213.331 203.873C213.548 203.349 213.916 202.902 214.387 202.587C214.859 202.272 215.413 202.104 215.98 202.104C216.74 202.104 217.47 202.406 218.007 202.943C218.545 203.48 218.847 204.209 218.847 204.969Z" fill="white"/>
<path d="M228.108 207.834C229.692 207.834 230.975 206.551 230.975 204.969C230.975 203.387 229.692 202.104 228.108 202.104C226.525 202.104 225.241 203.387 225.241 204.969C225.241 206.551 226.525 207.834 228.108 207.834Z" fill="white"/>
<path d="M430.765 218.563V339.875C430.764 343.895 429.166 347.75 426.322 350.592C423.478 353.435 419.621 355.034 415.598 355.036H197.369C193.854 355.037 190.448 353.819 187.732 351.59C185.016 349.361 183.158 346.259 182.476 342.814V342.772C182.29 341.812 182.198 340.835 182.202 339.856V218.563H430.765Z" fill="white" stroke="#2F2E41" stroke-miterlimit="10"/>
<path d="M430.532 237.323C429.468 236.725 428.335 236.257 427.158 235.928L425.795 229.841H420.001L418.651 235.928C417.468 236.252 416.33 236.72 415.263 237.323L410.013 233.975L405.918 238.054L409.208 243.281C408.604 244.347 408.135 245.485 407.812 246.667L401.715 248.015V253.805L407.812 255.168C408.133 256.355 408.602 257.497 409.208 258.568L405.862 263.832L409.962 267.925L415.226 264.576C416.289 265.18 417.424 265.649 418.604 265.971L419.959 272.054H425.734L427.089 265.971C428.265 265.643 429.398 265.174 430.463 264.576L430.733 264.753V237.175L430.532 237.323ZM422.914 258.489C421.433 258.489 419.985 258.05 418.753 257.227C417.522 256.405 416.562 255.236 415.995 253.868C415.429 252.501 415.281 250.996 415.57 249.544C415.859 248.092 416.573 246.759 417.621 245.713C418.668 244.666 420.003 243.954 421.456 243.666C422.909 243.378 424.415 243.527 425.783 244.094C427.151 244.661 428.32 245.621 429.142 246.852C429.965 248.083 430.403 249.53 430.402 251.01V251.01C430.403 251.993 430.21 252.965 429.834 253.873C429.458 254.78 428.907 255.605 428.212 256.3C427.517 256.994 426.691 257.545 425.783 257.921C424.875 258.296 423.901 258.489 422.919 258.489H422.914Z" fill="#CCCCCC"/>
<path d="M326.093 243.193V230.985L313.253 228.134C312.559 225.653 311.578 223.262 310.33 221.009L311.884 218.563H251.239L252.732 220.944C251.472 223.187 250.492 225.577 249.814 228.059L236.965 230.919V243.141L249.814 246.011C250.492 248.512 251.472 250.922 252.732 253.187L245.677 264.279L254.324 272.915L265.419 265.855C267.669 267.12 270.063 268.112 272.549 268.808L275.411 281.607H287.614L290.49 268.776C292.97 268.078 295.357 267.087 297.601 265.823L308.682 272.906L317.325 264.274L310.311 253.177C311.548 250.923 312.521 248.534 313.211 246.057L326.093 243.193ZM281.564 252.866C278.443 252.859 275.394 251.927 272.803 250.189C270.212 248.451 268.194 245.984 267.005 243.101C265.816 240.217 265.509 237.047 266.123 233.989C266.737 230.931 268.244 228.124 270.453 225.922C272.663 223.719 275.476 222.221 278.538 221.616C281.599 221.011 284.772 221.326 287.654 222.522C290.536 223.717 292.999 225.74 294.732 228.334C296.464 230.928 297.388 233.977 297.387 237.096C297.387 239.17 296.977 241.224 296.181 243.14C295.385 245.055 294.219 246.795 292.749 248.26C291.279 249.725 289.535 250.886 287.615 251.676C285.696 252.467 283.64 252.871 281.564 252.866V252.866Z" fill="#CCCCCC"/>
<path d="M322.556 312.58C322.929 311.078 323.127 309.538 323.147 307.99L330.128 304.344L328.201 297.28L320.331 297.642C319.534 296.322 318.586 295.098 317.506 293.996L319.833 286.476L313.485 282.83L308.17 288.62C306.672 288.257 305.137 288.062 303.596 288.039L299.947 281.063L292.882 282.984L293.254 290.852C291.932 291.647 290.707 292.595 289.606 293.675L282.076 291.35L278.427 297.689L284.263 302.991C283.885 304.485 283.692 306.021 283.686 307.562L276.705 311.208L278.632 318.268L286.511 317.896C287.286 319.223 288.224 320.448 289.303 321.542L286.976 329.025L293.329 332.671L298.616 326.928C300.116 327.305 301.657 327.499 303.205 327.504L306.853 334.48L313.918 332.559L313.606 325.839L313.555 324.686C314.894 323.896 316.133 322.948 317.246 321.863L324.771 324.188L327.88 318.761L328.406 317.831L322.556 312.58ZM305.867 316.868C304.058 317.367 302.141 317.319 300.359 316.729C298.577 316.14 297.011 315.036 295.857 313.556C294.703 312.077 294.015 310.289 293.878 308.419C293.741 306.548 294.162 304.679 295.088 303.048C296.015 301.417 297.404 300.096 299.081 299.254C300.758 298.412 302.647 298.086 304.51 298.317C306.372 298.548 308.125 299.325 309.545 300.551C310.965 301.777 311.99 303.396 312.489 305.204C312.487 305.226 312.487 305.248 312.489 305.269C313.137 307.687 312.803 310.263 311.559 312.435C310.315 314.608 308.262 316.201 305.848 316.868H305.867Z" fill="#CCCCCC"/>
<path d="M393.412 266.395L393.976 263L390.536 261.604C390.467 260.883 390.311 260.172 390.071 259.488L392.542 256.735L390.541 253.945L387.13 255.391C386.557 254.938 385.932 254.555 385.268 254.252L385.068 250.555L381.67 249.992L380.274 253.41C379.553 253.494 378.844 253.661 378.161 253.908L375.402 251.434L372.609 253.438L374.057 256.842C373.659 257.341 373.313 257.879 373.023 258.447C372.986 258.526 372.944 258.605 372.912 258.684L369.212 258.888L368.649 262.279L369.203 262.502L372.083 263.665C372.163 264.384 372.329 265.091 372.577 265.771L370.096 268.562L372.102 271.352L375.513 269.901C376.078 270.357 376.695 270.744 377.352 271.055L377.542 274.733L380.94 275.296L382.336 271.901C383.059 271.821 383.77 271.654 384.454 271.403L387.209 273.836L390.001 271.831L388.549 268.422C389.012 267.852 389.403 267.227 389.713 266.562L393.412 266.395ZM383.89 266.241C383.176 266.753 382.326 267.042 381.448 267.071C380.569 267.101 379.702 266.869 378.955 266.406C378.208 265.942 377.616 265.268 377.252 264.468C376.889 263.669 376.771 262.779 376.914 261.912C377.056 261.046 377.453 260.241 378.053 259.599C378.653 258.958 379.431 258.508 380.286 258.308C381.142 258.108 382.038 258.166 382.861 258.474C383.684 258.783 384.397 259.328 384.91 260.042C385.595 261 385.872 262.192 385.679 263.354C385.486 264.517 384.84 265.555 383.881 266.241H383.89Z" fill="#CCCCCC"/>
<path d="M271.818 253.201H195.493C190.209 253.201 185.925 257.482 185.925 262.762V368.356C185.925 373.636 190.209 377.917 195.493 377.917H271.818C277.103 377.917 281.387 373.636 281.387 368.356V262.762C281.387 257.482 277.103 253.201 271.818 253.201Z" fill="#BCBEC0"/>
<path opacity="0.2" d="M271.818 253.201H195.493C190.209 253.201 185.925 257.482 185.925 262.762V368.356C185.925 373.636 190.209 377.917 195.493 377.917H271.818C277.103 377.917 281.387 373.636 281.387 368.356V262.762C281.387 257.482 277.103 253.201 271.818 253.201Z" fill="black"/>
<path d="M290.267 272.185V377.778C290.268 379.033 290.022 380.277 289.542 381.437C289.062 382.597 288.358 383.652 287.47 384.54C286.583 385.428 285.529 386.133 284.368 386.614C283.208 387.096 281.964 387.344 280.707 387.344H204.382C203.125 387.344 201.881 387.097 200.72 386.616C199.558 386.135 198.503 385.43 197.615 384.542C196.726 383.654 196.021 382.599 195.541 381.438C195.06 380.278 194.813 379.034 194.814 377.778V377.778V272.208C194.814 269.673 195.821 267.241 197.615 265.448C199.408 263.655 201.841 262.647 204.378 262.646H280.703C281.959 262.646 283.203 262.894 284.364 263.374C285.524 263.855 286.579 264.559 287.467 265.447C288.355 266.335 289.06 267.389 289.54 268.549C290.02 269.709 290.267 270.953 290.267 272.208V272.185Z" fill="white"/>
<path d="M290.267 272.185V277.835H194.814V272.185C194.814 269.65 195.821 267.218 197.615 265.425C199.408 263.632 201.841 262.624 204.378 262.623H280.703C281.959 262.623 283.203 262.87 284.364 263.351C285.524 263.831 286.579 264.536 287.467 265.424C288.355 266.312 289.06 267.366 289.54 268.526C290.02 269.686 290.267 270.929 290.267 272.185V272.185Z" fill="#BCBEC0"/>
<path d="M227.275 284.383H203.791V288.322H227.275V284.383Z" fill="#BCBEC0"/>
<path d="M227.275 319.673H203.791V323.612H227.275V319.673Z" fill="#BCBEC0"/>
<path d="M227.275 351.678H203.791V355.617H227.275V351.678Z" fill="#BCBEC0"/>
<path d="M270.487 294.136H203.791V297.024H270.487V294.136Z" fill="#CCCCCC"/>
<path d="M258.462 299.656H203.791V302.47H258.462V299.656Z" fill="#CCCCCC"/>
<path d="M265.619 305.088H203.791V307.902H265.619V305.088Z" fill="#CCCCCC"/>
<path d="M265.619 310.515H203.791V313.329H265.619V310.515Z" fill="#CCCCCC"/>
<path d="M270.487 326.137H203.791V329.025H270.487V326.137Z" fill="#CCCCCC"/>
<path d="M258.462 331.657H203.791V334.471H258.462V331.657Z" fill="#CCCCCC"/>
<path d="M265.619 337.089H203.791V339.903H265.619V337.089Z" fill="#CCCCCC"/>
<path d="M270.487 361.273H203.791V364.161H270.487V361.273Z" fill="#CCCCCC"/>
<path d="M258.462 366.802H203.791V369.616H258.462V366.802Z" fill="#CCCCCC"/>
<path d="M265.619 372.234H203.791V375.048H265.619V372.234Z" fill="#CCCCCC"/>
<path d="M397.852 189.398V232.077C397.852 235.101 396.651 238 394.511 240.138C392.372 242.275 389.471 243.476 386.445 243.476H288.079C286.581 243.477 285.098 243.184 283.714 242.612C282.33 242.04 281.072 241.202 280.012 240.144C278.953 239.086 278.112 237.83 277.538 236.448C276.964 235.065 276.668 233.583 276.668 232.087V189.398C276.67 186.375 277.873 183.476 280.013 181.338C282.152 179.2 285.053 177.998 288.079 177.995H386.436C387.935 177.994 389.42 178.289 390.805 178.862C392.19 179.435 393.448 180.274 394.508 181.333C395.568 182.392 396.409 183.65 396.983 185.033C397.557 186.417 397.852 187.901 397.852 189.398V189.398Z" fill="#CCCCCC"/>
<path d="M397.852 189.398V190.38H276.658V189.398C276.661 186.373 277.865 183.473 280.007 181.334C282.148 179.196 285.052 177.995 288.079 177.995H386.436C387.935 177.994 389.42 178.289 390.805 178.862C392.19 179.435 393.448 180.274 394.508 181.333C395.569 182.392 396.41 183.65 396.983 185.033C397.557 186.417 397.852 187.901 397.852 189.398V189.398Z" fill="#BCBEC0"/>
<path d="M294.465 186.227C294.22 186.471 293.908 186.637 293.569 186.705C293.229 186.772 292.877 186.737 292.558 186.605C292.238 186.473 291.965 186.248 291.773 185.961C291.58 185.673 291.478 185.335 291.478 184.99C291.478 184.644 291.58 184.306 291.773 184.018C291.965 183.731 292.238 183.507 292.558 183.374C292.877 183.242 293.229 183.207 293.569 183.274C293.908 183.342 294.22 183.508 294.465 183.753V183.753C294.792 184.081 294.976 184.526 294.976 184.99C294.976 185.453 294.792 185.898 294.465 186.227V186.227Z" fill="#CCCCCC"/>
<path d="M302.581 186.227C302.336 186.471 302.024 186.637 301.685 186.705C301.346 186.772 300.994 186.737 300.674 186.605C300.355 186.473 300.081 186.248 299.889 185.961C299.697 185.673 299.594 185.335 299.594 184.99C299.594 184.644 299.697 184.306 299.889 184.018C300.081 183.731 300.355 183.507 300.674 183.374C300.994 183.242 301.346 183.207 301.685 183.274C302.024 183.342 302.336 183.508 302.581 183.753V183.753C302.908 184.081 303.092 184.526 303.092 184.99C303.092 185.453 302.908 185.898 302.581 186.227V186.227Z" fill="#CCCCCC"/>
<path d="M310.698 186.227C310.453 186.471 310.141 186.637 309.802 186.705C309.462 186.772 309.11 186.737 308.791 186.605C308.471 186.473 308.198 186.248 308.006 185.961C307.814 185.673 307.711 185.335 307.711 184.99C307.711 184.644 307.814 184.306 308.006 184.018C308.198 183.731 308.471 183.507 308.791 183.374C309.11 183.242 309.462 183.207 309.802 183.274C310.141 183.342 310.453 183.508 310.698 183.753V183.753C311.024 184.082 311.207 184.526 311.207 184.99C311.207 185.453 311.024 185.898 310.698 186.227V186.227Z" fill="#CCCCCC"/>
<path d="M323.999 198.225H284.384V232.445H323.999V198.225Z" stroke="white" stroke-width="1.1" stroke-linecap="round" stroke-linejoin="round" stroke-dasharray="4.41 4.41"/>
<path d="M375.709 198.225H330.119V200.63H375.709V198.225Z" fill="white"/>
<path d="M365.093 203.206H330.119V205.606H365.093V203.206Z" fill="white"/>
<path d="M382.192 208.164H330.119V210.591H382.192V208.164Z" fill="white"/>
<path d="M374.462 213.001H330.119V215.428H374.462V213.001Z" fill="white"/>
<path d="M401.166 295.322H378.869C376.237 295.322 374.103 297.454 374.103 300.084V313.162C374.103 315.792 376.237 317.924 378.869 317.924H401.166C403.798 317.924 405.932 315.792 405.932 313.162V300.084C405.932 297.454 403.798 295.322 401.166 295.322Z" fill="#CCCCCC"/>
<path d="M383.951 311.18C383.905 311.181 383.86 311.165 383.825 311.134L378.138 306.102C378.116 306.082 378.098 306.056 378.087 306.028C378.076 306 378.071 305.969 378.073 305.939C378.076 305.91 378.086 305.881 378.102 305.856C378.119 305.831 378.14 305.81 378.166 305.795L384.286 301.958C384.307 301.945 384.331 301.936 384.356 301.931C384.381 301.927 384.407 301.928 384.431 301.934C384.456 301.939 384.479 301.95 384.5 301.964C384.52 301.979 384.538 301.997 384.551 302.019C384.565 302.04 384.574 302.064 384.578 302.089C384.582 302.114 384.582 302.139 384.576 302.164C384.57 302.188 384.56 302.212 384.545 302.232C384.531 302.253 384.512 302.27 384.491 302.284L378.585 305.981L384.081 310.846C384.111 310.871 384.132 310.906 384.142 310.944C384.151 310.982 384.149 311.022 384.134 311.059C384.12 311.096 384.095 311.127 384.062 311.149C384.029 311.17 383.99 311.182 383.951 311.18V311.18Z" fill="#BCBEC0"/>
<path d="M395.521 311.543C395.493 311.544 395.466 311.538 395.441 311.527C395.416 311.516 395.394 311.499 395.376 311.478C395.36 311.459 395.347 311.437 395.339 311.413C395.331 311.389 395.328 311.363 395.33 311.338C395.332 311.313 395.339 311.288 395.351 311.266C395.363 311.244 395.38 311.224 395.4 311.208L400.705 306.693L394.571 302.67C394.55 302.656 394.532 302.638 394.518 302.618C394.503 302.597 394.493 302.573 394.488 302.549C394.483 302.524 394.483 302.499 394.487 302.474C394.492 302.449 394.502 302.426 394.515 302.405C394.544 302.363 394.587 302.334 394.637 302.323C394.686 302.313 394.738 302.322 394.781 302.349L401.129 306.507C401.154 306.523 401.175 306.545 401.19 306.571C401.206 306.596 401.215 306.625 401.217 306.655C401.218 306.685 401.213 306.714 401.202 306.742C401.191 306.769 401.174 306.793 401.152 306.813L395.646 311.506C395.61 311.532 395.566 311.545 395.521 311.543Z" fill="#BCBEC0"/>
<path d="M387.348 314.431C387.33 314.436 387.311 314.436 387.293 314.431C387.268 314.424 387.246 314.413 387.226 314.397C387.207 314.381 387.191 314.362 387.179 314.339C387.167 314.317 387.16 314.293 387.158 314.268C387.156 314.243 387.159 314.218 387.167 314.194L391.681 300.028C391.689 300.004 391.702 299.982 391.718 299.963C391.735 299.944 391.755 299.929 391.777 299.917C391.8 299.906 391.824 299.9 391.849 299.898C391.874 299.896 391.899 299.899 391.923 299.907C391.947 299.914 391.97 299.926 391.989 299.942C392.009 299.957 392.025 299.977 392.037 299.999C392.048 300.021 392.055 300.046 392.058 300.07C392.06 300.095 392.057 300.121 392.049 300.144L387.53 314.296C387.519 314.336 387.495 314.37 387.462 314.394C387.429 314.419 387.389 314.432 387.348 314.431V314.431Z" fill="#BCBEC0"/>
<path d="M340.26 437.492C340.26 437.492 319.098 443.538 316.138 444.603C313.453 445.533 306.169 448.105 300.705 447.31C300.177 447.233 299.655 447.122 299.142 446.975C293.604 445.324 291.114 443.784 290.383 440.306C289.652 436.827 292.412 434.26 295.07 432.623C297.727 430.986 312.136 429.265 312.136 429.265L315.617 430.288L340.26 437.492Z" fill="#F37748"/>
<path d="M300.705 447.305C300.177 447.229 299.655 447.117 299.142 446.97C293.604 445.319 291.114 443.78 290.383 440.301C289.652 436.822 292.412 434.255 295.07 432.618C297.727 430.981 312.136 429.26 312.136 429.26L315.617 430.284C312.461 431.739 300.724 432.535 298.164 434.004C295.605 435.474 294.371 438.25 295.879 442.027C296.689 444.003 298.853 445.938 300.705 447.305Z" fill="white"/>
<path d="M378.25 331.592L356.144 323.188L355.864 323.081C355.864 323.081 355.943 322.495 356.009 321.621C356.148 319.859 356.223 316.971 355.39 316.012C354.156 314.557 350.666 315.78 347.259 314.217C343.852 312.655 337.551 315.45 337.551 315.45C337.551 315.45 332.999 314.613 330.984 317.896C329.965 320.542 330.314 324.458 330.314 324.458L329.895 324.607C327.261 325.588 312.932 330.978 309.883 333.145C306.532 335.517 302.823 359.85 301.636 366.998C300.45 374.146 298.327 380.587 299.402 383.042C300.478 385.498 315.873 397.352 324.734 400.408C333.595 403.463 365.014 402.594 365.014 402.594C365.014 402.594 365.521 402.459 366.41 402.166C371.725 400.459 390.578 393.413 400.584 376.876C400.64 376.903 390.932 345.158 378.25 331.592ZM318.521 372.518C316.892 373.671 317.79 378.131 317.79 378.131L315.026 375.699L321.97 358.626L324.934 371.751C324.934 371.751 320.145 371.383 318.521 372.527V372.518ZM374.103 383.363C373.335 383.754 376.291 375.55 374.89 373.69C373.489 371.83 369.263 372.006 369.263 372.006L369.621 369.769L372.125 356.934L372.958 355.948C372.958 355.948 381.554 370.672 383.095 375.866C383.095 375.89 373.712 383.373 374.103 383.373V383.363Z" fill="#F37748"/>
<path opacity="0.2" d="M378.25 331.592L356.144 323.188L355.864 323.081C355.864 323.081 355.943 322.495 356.009 321.621L355.543 324.486L352.285 328.923C355.78 330.207 359.192 331.708 362.501 333.415C364.082 334.265 365.372 335.571 366.202 337.162C367.031 338.754 367.364 340.557 367.155 342.34L363.083 377.164L361.426 396.938L366.471 402.166C371.781 400.459 390.634 393.413 400.64 376.876C400.64 376.903 390.932 345.158 378.25 331.592ZM374.103 383.373C373.335 383.763 376.291 375.559 374.89 373.699C373.489 371.839 369.263 372.016 369.263 372.016L369.621 369.779L372.125 356.943L372.958 355.957C372.958 355.957 381.554 370.681 383.095 375.876C383.095 375.89 373.712 383.373 374.103 383.373Z" fill="black"/>
<path opacity="0.2" d="M326.4 373.699L322.984 362.221C322.984 362.221 316.818 341.21 312.592 336.034L313.676 350.809C313.676 350.809 310.027 368.458 306.695 373.699C303.363 378.94 302.618 380.266 306.695 380.266C310.772 380.266 320.708 388.172 320.708 388.172L319.945 381.605L326.4 373.699ZM317.739 378.141L314.975 375.708L321.918 358.636L324.883 371.76C324.883 371.76 320.127 371.402 318.498 372.55C316.869 373.699 317.739 378.141 317.739 378.141V378.141Z" fill="black"/>
<path d="M372.963 355.957C372.963 355.957 381.028 367.867 383.095 375.89" stroke="#263238" stroke-width="1.1" stroke-linecap="round" stroke-linejoin="round"/>
<path opacity="0.2" d="M344.96 338.373C344.961 338.629 344.886 338.879 344.744 339.093C344.602 339.306 344.4 339.473 344.164 339.571C343.927 339.669 343.666 339.695 343.415 339.646C343.164 339.596 342.933 339.473 342.751 339.292C342.57 339.111 342.447 338.88 342.397 338.629C342.347 338.377 342.373 338.117 342.472 337.881C342.57 337.644 342.737 337.442 342.95 337.301C343.164 337.159 343.415 337.084 343.671 337.085V337.085C344.011 337.083 344.337 337.217 344.579 337.456C344.821 337.694 344.958 338.019 344.96 338.359V338.373Z" fill="black"/>
<path d="M367.602 407.086H323.082C322.805 407.086 322.54 406.976 322.345 406.781C322.149 406.586 322.039 406.321 322.039 406.044C322.039 405.768 322.149 405.503 322.345 405.308C322.54 405.112 322.805 405.003 323.082 405.003H367.602C367.739 405.003 367.874 405.03 368.001 405.082C368.127 405.134 368.242 405.211 368.339 405.308C368.436 405.405 368.512 405.519 368.565 405.646C368.617 405.772 368.644 405.908 368.644 406.044C368.644 406.181 368.617 406.317 368.565 406.443C368.512 406.569 368.436 406.684 368.339 406.781C368.242 406.878 368.127 406.955 368.001 407.007C367.874 407.059 367.739 407.086 367.602 407.086Z" fill="#263238"/>
<path d="M369.161 403.589L375.108 375.597C375.19 375.215 375.196 374.82 375.125 374.436C375.055 374.052 374.909 373.685 374.696 373.357C374.483 373.029 374.208 372.747 373.886 372.525C373.564 372.304 373.201 372.148 372.819 372.067C372.612 372.024 372.401 372.002 372.19 372.002H320.192C319.402 372.003 318.645 372.317 318.087 372.875C317.529 373.433 317.214 374.189 317.213 374.978C317.215 375.173 317.235 375.368 317.274 375.559L322.621 402.631C322.751 403.296 323.105 403.897 323.624 404.333C324.143 404.77 324.796 405.016 325.474 405.031L366.191 405.961C366.885 405.971 367.56 405.74 368.102 405.307C368.644 404.875 369.018 404.267 369.161 403.589V403.589Z" fill="#D1D3D4"/>
<path d="M350.172 388.163C350.172 388.984 349.927 389.787 349.469 390.469C349.012 391.152 348.362 391.683 347.603 391.997C346.843 392.31 346.007 392.392 345.201 392.23C344.395 392.069 343.655 391.673 343.074 391.091C342.494 390.51 342.099 389.769 341.939 388.964C341.78 388.158 341.863 387.323 342.179 386.564C342.494 385.806 343.027 385.158 343.711 384.702C344.395 384.247 345.199 384.004 346.021 384.005C346.567 384.005 347.108 384.113 347.612 384.322C348.116 384.531 348.574 384.837 348.96 385.223C349.345 385.61 349.651 386.068 349.859 386.572C350.067 387.077 350.174 387.617 350.172 388.163V388.163Z" fill="#BCBEC0"/>
<path d="M364.521 374.871H358.354C358.326 374.875 358.298 374.874 358.271 374.866C358.244 374.858 358.218 374.845 358.197 374.826C358.176 374.808 358.158 374.785 358.147 374.76C358.135 374.734 358.129 374.706 358.129 374.678C358.129 374.65 358.135 374.622 358.147 374.596C358.158 374.571 358.176 374.548 358.197 374.53C358.218 374.511 358.244 374.498 358.271 374.49C358.298 374.483 358.326 374.481 358.354 374.485H364.535C364.581 374.492 364.623 374.516 364.653 374.551C364.683 374.586 364.7 374.632 364.7 374.678C364.7 374.725 364.683 374.77 364.653 374.805C364.623 374.841 364.581 374.864 364.535 374.871H364.521Z" fill="#2F2E41"/>
<path d="M352.304 374.871H328.815C328.769 374.864 328.727 374.841 328.697 374.805C328.667 374.77 328.65 374.725 328.65 374.678C328.65 374.632 328.667 374.586 328.697 374.551C328.727 374.516 328.769 374.492 328.815 374.485H352.304C352.35 374.492 352.392 374.516 352.422 374.551C352.453 374.586 352.469 374.632 352.469 374.678C352.469 374.725 352.453 374.77 352.422 374.805C352.392 374.841 352.35 374.864 352.304 374.871V374.871Z" fill="#2F2E41"/>
<path d="M369.263 433.353L364.521 445.798C364.521 445.798 352.42 442.747 336.927 439.576C320.718 436.255 303.791 431.963 295.014 416.564C293.948 414.704 293.231 412.476 293.734 410.374C295 405.059 301.925 403.612 306.486 403.082C309.353 402.778 312.235 402.623 315.119 402.617C316.58 402.617 321.43 401.822 322.607 402.691C324.372 403.98 326.256 405.096 328.234 406.026C330.826 407.123 368.644 405.04 368.644 405.04C369.302 403.606 369.704 402.068 369.831 400.496C375.783 397.478 389.536 394.915 395.376 396.055C404.521 397.79 409.855 403.124 408.84 408.705C407.826 414.285 387.628 429.274 369.263 433.353Z" fill="#2F2E41"/>
<path d="M369.263 433.353L364.521 445.798C364.521 445.798 352.42 442.747 336.927 439.576C320.718 436.255 303.791 431.963 295.014 416.564C293.948 414.704 293.231 412.476 293.734 410.374C295 405.059 301.925 403.612 306.486 403.082C309.353 402.778 312.235 402.623 315.119 402.617C316.58 402.617 321.43 401.822 322.607 402.691C324.372 403.98 326.256 405.096 328.234 406.026C330.826 407.123 368.644 405.04 368.644 405.04C369.302 403.606 369.704 402.068 369.831 400.496C375.783 397.478 389.536 394.915 395.376 396.055C404.521 397.79 409.855 403.124 408.84 408.705C407.826 414.285 387.628 429.274 369.263 433.353Z" fill="#2F2E41"/>
<path d="M369.263 433.53H369.217C369.1 433.502 357.582 430.4 348.246 424.112C346.733 423.089 345.258 422.029 343.829 421.006C336.434 415.681 329.453 410.676 318.535 411.96C318.51 411.963 318.484 411.961 318.46 411.954C318.436 411.948 318.413 411.936 318.393 411.921C318.373 411.905 318.357 411.886 318.344 411.864C318.332 411.842 318.324 411.818 318.321 411.793C318.318 411.768 318.32 411.742 318.326 411.718C318.333 411.694 318.345 411.671 318.36 411.651C318.376 411.631 318.395 411.615 318.417 411.602C318.439 411.59 318.463 411.582 318.488 411.579C329.555 410.29 336.597 415.346 344.053 420.699C345.477 421.722 346.952 422.778 348.46 423.796C357.726 430.051 369.198 433.135 369.314 433.162C369.363 433.177 369.405 433.209 369.43 433.254C369.455 433.298 369.462 433.35 369.449 433.4C369.435 433.438 369.41 433.47 369.376 433.494C369.343 433.517 369.304 433.53 369.263 433.53V433.53Z" fill="#2F2E41"/>
<path d="M346.203 422.657C346.154 422.661 346.106 422.647 346.067 422.617C346.029 422.587 346.003 422.543 345.996 422.495C345.989 422.446 346.001 422.397 346.029 422.357C346.057 422.317 346.099 422.29 346.147 422.28C351.313 420.796 355.231 417.722 359.378 414.462C359.965 413.997 360.551 413.532 361.147 413.067C366.184 409.031 371.591 405.479 377.296 402.459C377.341 402.435 377.394 402.431 377.442 402.445C377.491 402.46 377.532 402.493 377.556 402.538C377.569 402.56 377.576 402.585 377.579 402.61C377.581 402.635 377.579 402.66 377.572 402.685C377.564 402.709 377.552 402.731 377.536 402.751C377.52 402.77 377.5 402.787 377.477 402.798C371.792 405.803 366.404 409.338 361.384 413.355C360.788 413.82 360.202 414.285 359.615 414.75C355.427 418.034 351.49 421.131 346.254 422.657H346.203Z" fill="#2F2E41"/>
<path d="M334.544 309.906L335.182 316.882C335.369 318.971 336.333 320.914 337.884 322.326C339.435 323.738 341.461 324.518 343.559 324.509V324.509C345.703 324.513 347.766 323.695 349.324 322.224C350.882 320.753 351.817 318.742 351.936 316.603L352.29 310.381L334.544 309.906Z" fill="#F9B499"/>
<path d="M334.693 311.543L335.098 315.957C335.098 315.957 343.108 324.714 352.085 313.813L334.693 311.543Z" fill="#F7A48B"/>
<path d="M343.927 317.198C351.975 317.198 358.498 308.345 358.498 297.424C358.498 286.503 351.975 277.649 343.927 277.649C335.879 277.649 329.355 286.503 329.355 297.424C329.355 308.345 335.879 317.198 343.927 317.198Z" fill="#F9B499"/>
<path d="M328.871 300.425C330.739 299.981 331.652 297.099 330.911 293.988C330.17 290.877 328.055 288.715 326.188 289.16C324.32 289.604 323.406 292.486 324.147 295.597C324.888 298.708 327.003 300.869 328.871 300.425Z" fill="#F9B499"/>
<path d="M357.102 299.572C359.022 299.572 360.579 296.98 360.579 293.782C360.579 290.585 359.022 287.992 357.102 287.992C355.182 287.992 353.626 290.585 353.626 293.782C353.626 296.98 355.182 299.572 357.102 299.572Z" fill="#F9B499"/>
<path d="M329.355 299.042C330.386 298.881 331.316 298.334 331.957 297.512C332.347 296.791 332.595 296.002 332.688 295.187C332.957 293.636 333.093 292.064 333.092 290.49C333.062 289.874 333.118 289.257 333.26 288.657C333.48 288.054 333.819 287.5 334.256 287.03C335.284 285.82 336.532 284.802 337.514 283.546C338.041 282.954 338.442 282.26 338.693 281.508C338.943 280.756 339.038 279.96 338.97 279.17C341.228 281.032 343.866 282.376 346.7 283.108C349.534 283.84 352.494 283.942 355.371 283.407C360.588 282.384 365.586 277.826 364.981 272.064C364.866 271.101 364.452 270.198 363.798 269.482C363.144 268.765 362.282 268.271 361.333 268.069C358.759 267.427 356.441 268.799 354.11 269.683C349.851 271.287 345.686 268.529 341.386 268.069C337.737 267.669 333.19 268.129 331.277 271.789C331.277 271.789 324.711 272.566 321.793 277.989C318.875 283.411 324.399 290.922 324.399 290.922C324.399 290.922 326.586 288.239 329.453 293.661L329.355 299.042Z" fill="#2F2E41"/>
<path d="M354.003 281.574C354.003 281.574 352.006 290.476 357.223 294.782C357.223 294.782 358.368 292.108 359.518 291.452C360.343 289.894 360.695 288.129 360.529 286.374C360.364 284.619 359.689 282.951 358.587 281.574C354.747 276.398 354.003 281.574 354.003 281.574Z" fill="#2F2E41"/>
<g opacity="0.2">
<path d="M327.726 285.434C327.701 285.433 327.676 285.427 327.653 285.416C327.631 285.405 327.61 285.389 327.594 285.37C327.577 285.351 327.565 285.329 327.557 285.305C327.55 285.28 327.547 285.255 327.55 285.23C327.717 282.76 329.071 280.272 331.273 278.403C333.474 276.533 336.252 275.524 338.766 275.747C340.62 275.941 342.462 276.234 344.285 276.626C348.651 277.496 352.765 278.31 357.051 276.566C358.226 276.142 359.288 275.454 360.155 274.555C361.022 273.656 361.67 272.57 362.049 271.38C362.065 271.332 362.1 271.292 362.145 271.268C362.19 271.245 362.243 271.24 362.291 271.255C362.34 271.271 362.38 271.305 362.403 271.35C362.427 271.395 362.432 271.448 362.417 271.496C362.019 272.74 361.342 273.877 360.435 274.817C359.529 275.758 358.419 276.479 357.191 276.924C352.807 278.71 348.437 277.854 344.211 277.003C342.392 276.61 340.555 276.313 338.705 276.115C336.29 275.896 333.665 276.835 331.501 278.682C329.337 280.528 328.08 282.867 327.917 285.244C327.918 285.269 327.913 285.294 327.904 285.317C327.895 285.341 327.881 285.362 327.863 285.38C327.845 285.398 327.824 285.412 327.8 285.421C327.777 285.431 327.752 285.435 327.726 285.434V285.434Z" fill="white"/>
</g>
<g opacity="0.2">
<path d="M324.766 284.067C324.741 284.067 324.716 284.061 324.693 284.05C324.669 284.04 324.649 284.025 324.631 284.006C324.614 283.988 324.6 283.966 324.592 283.942C324.583 283.918 324.579 283.893 324.58 283.867C324.663 281.783 325.334 279.765 326.517 278.046C327.7 276.328 329.345 274.979 331.263 274.157C331.31 274.138 331.363 274.138 331.41 274.157C331.457 274.176 331.494 274.213 331.515 274.259C331.535 274.305 331.536 274.358 331.518 274.405C331.5 274.452 331.463 274.49 331.417 274.51C329.565 275.303 327.976 276.605 326.834 278.263C325.691 279.922 325.042 281.869 324.962 283.881C324.96 283.931 324.938 283.979 324.901 284.013C324.865 284.048 324.817 284.067 324.766 284.067Z" fill="white"/>
</g>
</svg>
