<?xml version="1.0" standalone="no"?>
<!DOCTYPE svg PUBLIC "-//W3C//DTD SVG 20010904//EN"
 "http://www.w3.org/TR/2001/REC-SVG-20010904/DTD/svg10.dtd">
<svg version="1.0" xmlns="http://www.w3.org/2000/svg"
 width="260.000000pt" height="260.000000pt" viewBox="0 0 260.000000 260.000000"
 preserveAspectRatio="xMidYMid meet">
<metadata>
Created by potrace 1.14, written by Peter Selinger 2001-2017
</metadata>
<g transform="translate(0.000000,260.000000) scale(0.100000,-0.100000)"
fill="#000000" stroke="none">
<path d="M0 1300 l0 -1300 1300 0 1300 0 0 1300 0 1300 -1300 0 -1300 0 0
-1300z m1527 413 c-2 -10 -88 -233 -191 -497 -102 -263 -186 -480 -186 -482 0
-2 -18 -4 -41 -4 -35 0 -40 3 -35 18 4 9 91 234 194 500 l186 482 39 0 c33 0
38 -3 34 -17z m-657 -217 l0 -43 -200 -113 c-110 -62 -198 -116 -195 -120 2
-4 92 -56 199 -116 l195 -109 1 -48 0 -48 -58 33 c-32 18 -140 80 -240 138
l-182 105 0 46 0 46 233 136 c127 74 235 136 240 136 4 1 7 -19 7 -43z m1105
-92 l235 -136 0 -47 0 -46 -238 -137 -237 -137 -3 42 c-2 28 1 45 12 52 8 7
99 59 200 116 102 57 186 106 186 109 0 3 -90 56 -200 118 l-200 113 0 44 c0
25 2 45 5 45 3 0 111 -61 240 -136z"/>
</g>
</svg>
